Coordinates
version=1
nRows=22
nColumns=24
inDegrees=yes

Units are S.I. units (second, meters, Newtons, ...)
Angles are in degrees.

endheader
time	pelvis_tilt	pelvis_list	pelvis_rotation	pelvis_tx	pelvis_ty	pelvis_tz	hip_flexion_r	hip_adduction_r	hip_rotation_r	knee_angle_r	ankle_angle_r	subtalar_angle_r	mtp_angle_r	hip_flexion_l	hip_adduction_l	hip_rotation_l	knee_angle_l	ankle_angle_l	subtalar_angle_l	mtp_angle_l	lumbar_extension	lumbar_bending	lumbar_rotation
      0.82916667	      1.58744343	     -6.21739897	      7.85138126	     -0.55028699	      1.03049931	      0.32778785	      9.36365370	     12.11612785	     -2.33969792	    -13.23275256	      1.87018079	    -12.93211775	      4.50497923	     15.59973544	     -9.30506040	      0.44268769	    -69.32861853	     -9.09204944	     -5.27609878	      2.11849884	     -2.62484725	      3.59873074	     -1.44919686
      0.83333333	      1.57963422	     -6.14918039	      7.84220971	     -0.54552333	      1.03108245	      0.32798225	      8.93583887	     12.09998397	     -2.28036974	    -12.97966979	      1.99011141	    -12.87116859	      4.50538740	     16.18968926	     -9.19496043	      0.47915885	    -69.25561903	     -8.11327523	     -5.51160526	      2.08462587	     -2.69737475	      3.51217160	     -1.37604700
      0.83750000	      1.55691622	     -6.07333637	      7.81905200	     -0.54075471	      1.03165760	      0.32818514	      8.52228869	     12.07387777	     -2.21423364	    -12.72865985	      2.11669396	    -12.78916282	      4.50431226	     16.77362253	     -9.07263103	      0.49971875	    -69.11379938	     -7.17662170	     -5.73314916	      2.03373570	     -2.75607727	      3.41951976	     -1.26215874
      0.84166667	      1.54680001	     -5.98473951	      7.79183501	     -0.53596515	      1.03225084	      0.32836997	      8.08380898	     12.03408506	     -2.14946606	    -12.46091230	      2.23477934	    -12.71479062	      4.50426215	     17.32234709	     -8.93381878	      0.50656147	    -68.90296950	     -6.34781224	     -6.03773866	      2.00672264	     -2.79220722	      3.31149495	     -1.17859107
      0.84583333	      1.55329571	     -5.90203909	      7.73268994	     -0.53122727	      1.03283959	      0.32861795	      7.63782248	     12.00831977	     -2.04044501	    -12.21599697	      2.38041569	    -12.59727422	      4.49837136	     17.83612524	     -8.81381344	      0.49241889	    -68.64422803	     -5.46300795	     -6.16960659	      1.90390960	     -2.91495030	      3.20951113	     -0.95672970
      0.85000000	      1.53879530	     -5.80579082	      7.67892832	     -0.52644495	      1.03340998	      0.32881249	      7.20168805	     11.95996498	     -1.95590392	    -11.94880905	      2.48325689	    -12.52142493	      4.49637310	     18.34916895	     -8.65996169	      0.48029943	    -68.30996147	     -4.73971342	     -6.49054293	      1.86701172	     -2.95351008	      3.09582118	     -0.87309579
      0.85416667	      1.57016867	     -5.69761335	      7.59332583	     -0.52168947	      1.03404367	      0.32905105	      6.71356508	     11.90813320	     -1.82477189	    -11.68665440	      2.60395514	    -12.40268861	      4.46864313	     18.78293138	     -8.50877070	      0.43906648	    -67.91236379	     -3.99450893	     -6.67516128	      1.60042014	     -3.08714066	      2.99265248	     -0.52844145
      0.85833333	      1.55074599	     -5.60186364	      7.49217402	     -0.51695816	      1.03455636	      0.32931264	      6.29210312	     11.86422091	     -1.67110348	    -11.44598984	      2.72736834	    -12.33265005	      4.45976523	     19.26563338	     -8.36575517	      0.38453583	    -67.47338581	     -3.33127793	     -6.94960863	      1.50975145	     -3.18215224	      2.86386953	     -0.43344901
      0.86250000	      1.58190952	     -5.49991241	      7.38919678	     -0.51218264	      1.03514847	      0.32957125	      5.79213160	     11.81952659	     -1.51619194	    -11.15919016	      2.84096607	    -12.24379408	      4.43712036	     19.66423748	     -8.22506061	      0.32508556	    -66.96149322	     -2.71287731	     -7.16831748	      1.33341062	     -3.28933795	      2.73696895	     -0.17826012
      0.86666667	      1.58606883	     -5.39108241	      7.26426993	     -0.50743461	      1.03568887	      0.32983936	      5.33010037	     11.76183800	     -1.33955147	    -10.89465405	      2.94222290	    -12.17017593	      4.41288691	     20.07083520	     -8.06992565	      0.25445938	    -66.39248484	     -2.14482465	     -7.42731164	      1.16354826	     -3.38626368	      2.61054746	      0.03275648
      0.87083333	      1.59635231	     -5.27816560	      7.12958725	     -0.50269262	      1.03621022	      0.33010744	      4.86287289	     11.69751003	     -1.16574076	    -10.63386867	      3.04056417	    -12.08886376	      4.38767322	     20.45095192	     -7.91224369	      0.17520588	    -65.76831147	     -1.61123821	     -7.67025485	      1.00298789	     -3.49226223	      2.48977585	      0.24378555
      0.87500000	      1.62449151	     -5.17464498	      6.98315585	     -0.49796357	      1.03672669	      0.33038681	      4.37548566	     11.64410231	     -0.97562078	    -10.36774137	      3.13662450	    -12.01230649	      4.36368296	     20.79469979	     -7.76954666	      0.08942937	    -65.09223157	     -1.10475220	     -7.90261990	      0.86483413	     -3.61849004	      2.37784302	      0.45567524
      0.87916667	      1.65528939	     -5.07661677	      6.82623379	     -0.49324460	      1.03722717	      0.33066664	      3.88897238	     11.59289558	     -0.79188622	    -10.10506593	      3.18637681	    -11.94106362	      4.31611492	     21.11758720	     -7.63173029	      0.00268314	    -64.36354042	     -0.61661687	     -8.14395458	      0.63584495	     -3.74598617	      2.28611136	      0.74677434
      0.88333333	      1.64452212	     -4.95494702	      6.64199277	     -0.48852357	      1.03766162	      0.33098747	      3.45268710	     11.51129120	     -0.56824786	     -9.87007861	      3.31491680	    -11.86173151	      4.30176705	     21.45335917	     -7.47075096	     -0.11286816	    -63.56883465	     -0.18325503	     -8.35796728	      0.56002212	     -3.83708958	      2.14605943	      0.87301906
      0.88750000	      1.69477004	     -4.84039027	      6.45710543	     -0.48380197	      1.03816573	      0.33129485	      2.94239726	     11.43984186	     -0.34915554	     -9.61284294	      3.40789131	    -11.76740939	      4.28405886	     21.70177379	     -7.32418572	     -0.22471878	    -62.71588462	      0.22858610	     -8.57379933	      0.48192806	     -3.99397896	      2.02954755	      1.09922708
      0.89166667	      1.72326275	     -4.73611481	      6.26956703	     -0.47908550	      1.03859619	      0.33159363	      2.45805155	     11.37270168	     -0.12661879	     -9.35678512	      3.50029105	    -11.68183781	      4.26442752	     21.96034127	     -7.18415756	     -0.32997787	    -61.81663957	      0.60740793	     -8.77068196	      0.40426756	     -4.11647122	      1.91635086	      1.34204419
      0.89583333	      1.74271689	     -4.64228119	      6.06874966	     -0.47437771	      1.03897536	      0.33191943	      1.98905849	     11.31357978	      0.10536484	     -9.10802996	      3.59212946	    -11.59766108	      4.24233825	     22.21176104	     -7.05932022	     -0.43963860	    -60.87009392	      0.96788348	     -8.96120639	      0.32596987	     -4.22974961	      1.81630382	      1.59775622
      0.90000000	      1.78964271	     -4.55685288	      5.87821731	     -0.46964709	      1.03937194	      0.33222192	      1.47763304	     11.26267748	      0.33203125	     -8.82914408	      3.67830082	    -11.51398288	      4.20424448	     22.41473942	     -6.94270693	     -0.53588979	    -59.86807727	      1.27664812	     -9.13806438	      0.20719822	     -4.35179897	      1.72350211	      1.93005607
      0.90416667	      1.80832014	     -4.45889244	      5.66516412	     -0.46493936	      1.03970294	      0.33253207	      1.01280674	     11.18919169	      0.56770416	     -8.58829904	      3.77614271	    -11.42576260	      4.16781031	     22.62089863	     -6.81106577	     -0.64821051	    -58.80778216	      1.57605328	     -9.31957055	      0.09942104	     -4.45818826	      1.62031886	      2.18362474
      0.90833333	      1.79242734	     -4.37113911	      5.43797505	     -0.46024437	      1.03994482	      0.33285788	      0.60036263	     11.11940752	      0.80788876	     -8.37630827	      3.86918576	    -11.32614116	      4.14501025	     22.84738004	     -6.68922148	     -0.76117178	    -57.70321344	      1.87653031	     -9.48438601	      0.03365830	     -4.54461528	      1.52324789	      2.36521559
      0.91250000	      1.82117534	     -4.28303599	      5.21915023	     -0.45552758	      1.04023463	      0.33315741	      0.12766804	     11.04915606	      1.04393726	     -8.13870125	      3.96983024	    -11.22599187	      4.11682399	     22.99988636	     -6.56701103	     -0.86413587	    -56.53456186	      2.11425898	     -9.66152185	     -0.04422610	     -4.66168603	      1.43119044	      2.62535360
      0.91666667	      1.85442694	     -4.20287512	      5.00106892	     -0.45080756	      1.04049762	      0.33345246	     -0.34921082	     10.98360399	      1.27509331	     -7.89770264	      4.06835190	    -11.12245946	      4.08504279	     23.12845964	     -6.45424213	     -0.96125184	    -55.31601094	      2.32090530	     -9.83706423	     -0.12809573	     -4.77985370	      1.35062403	      2.89176676
